# xmcd CD database file
#
# Track frame offsets:
#	150
#	17438
#	29039
#	45148
#	66033
#	81915
#	97865
#	114094
#	136367
#	153863
#	169929
#	188734
#	208179
#	232350
#
# Disc length: 3348 seconds
#
# Revision: 0
# Processed by: cddbd v1.4PL0 Copyright (c) Steve Scherf et al.
# Submitted via: Feurio! 1.63 - http://www.feurio.com
#
DISCID=af0d120e
DTITLE=City High - City High
DYEAR=1900
DGENRE=
TTITLE0=Didn`t Ya
TTITLE1=Three Way
TTITLE2=Why
TTITLE3=Song For You
TTITLE4=15 Will Get You 20
TTITLE5=Cat And Dogs
TTITLE6=Caramel
TTITLE7=Best Friends
TTITLE8=Sista
TTITLE9=What Would You Do
TTITLE10=So Many Things
TTITLE11=The Only One I Trust
TTITLE12=City High Anthem
TTITLE13=You Dont Know Me
EXTD=
EXTT0=done by THH-Crew (Gremlin)
EXTT1=done by THH-Crew (Gremlin)
EXTT2=done by THH-Crew (Gremlin)
EXTT3=done by THH-Crew (Gremlin)
EXTT4=done by THH-Crew (Gremlin)
EXTT5=done by THH-Crew (Gremlin)
EXTT6=done by THH-Crew (Gremlin)
EXTT7=done by THH-Crew (Gremlin)
EXTT8=done by THH-Crew (Gremlin)
EXTT9=done by THH-Crew (Gremlin)
EXTT10=done by THH-Crew (Gremlin)
EXTT11=done by THH-Crew (Gremlin)
EXTT12=done by THH-Crew (Gremlin)
EXTT13=done by THH-Crew (Gremlin)
PLAYORDER=
